<svg width="920" height="920" viewBox="0 0 920 920" version="1.1" xmlns="http://www.w3.org/2000/svg">
<path fill="#ffffff" opacity="1.00" d=" M 215.93 57.69 C 218.59 58.28 221.32 58.38 224.04 58.44 C 229.90 59.12 235.62 60.67 241.22 62.50 C 254.07 66.87 265.35 74.66 275.75 83.21 C 285.47 91.82 294.58 101.14 302.83 111.16 C 320.84 133.16 337.74 156.42 349.48 182.43 C 353.59 192.60 357.03 203.14 358.46 214.04 C 358.66 220.01 358.83 225.99 358.36 231.95 C 356.38 244.34 351.54 256.35 344.06 266.45 C 333.64 281.63 319.96 294.08 307.11 307.13 C 302.01 312.33 296.00 317.14 293.52 324.25 C 289.27 334.40 290.94 345.66 293.83 355.92 C 294.26 357.20 294.64 358.50 295.06 359.79 C 296.47 364.01 298.14 368.13 300.01 372.17 C 301.44 376.08 303.35 379.79 305.49 383.35 C 312.74 396.65 321.14 409.31 330.22 421.42 C 339.54 434.10 349.48 446.32 359.80 458.19 C 361.66 460.65 363.91 462.77 365.94 465.08 C 375.31 476.00 385.23 486.44 395.06 496.95 C 410.55 513.01 426.17 528.98 442.46 544.24 C 447.68 549.11 452.64 554.26 458.03 558.95 C 466.22 566.43 474.33 574.01 482.83 581.14 C 488.33 586.38 494.38 590.96 500.21 595.82 C 505.43 600.47 511.29 604.29 516.63 608.79 C 525.83 615.95 535.61 622.29 545.31 628.73 C 561.93 638.76 579.55 648.51 599.12 650.92 C 602.63 651.61 606.31 651.82 609.81 650.93 C 616.05 650.53 622.07 647.86 626.95 644.00 C 647.44 624.65 665.69 601.58 691.85 589.52 C 703.25 584.90 715.81 582.27 728.10 584.01 C 734.46 584.68 740.70 586.20 746.85 587.93 C 762.26 592.65 776.51 600.47 790.13 608.96 C 794.17 611.46 798.17 614.06 802.01 616.87 C 822.59 631.25 842.62 646.83 859.22 665.79 C 871.17 679.65 880.89 695.95 884.21 714.14 C 884.23 714.70 884.29 715.80 884.32 716.36 C 885.68 723.17 884.77 730.10 884.10 736.93 C 881.03 750.09 875.74 762.80 867.87 773.84 C 866.46 776.03 864.89 778.12 863.27 780.17 C 862.30 781.53 861.30 782.87 860.35 784.25 C 843.28 805.12 822.85 822.81 803.79 841.77 C 803.36 842.12 802.51 842.82 802.09 843.17 C 800.80 844.22 799.52 845.28 798.25 846.36 C 791.64 851.31 784.04 854.65 776.19 857.08 C 773.72 857.79 771.23 858.41 768.75 859.07 C 762.89 860.52 756.91 861.32 750.95 862.11 C 745.69 863.13 740.31 862.54 734.99 862.68 C 729.65 862.36 724.24 863.14 718.97 861.99 C 697.61 859.92 676.43 855.82 655.80 849.96 C 650.01 847.99 644.06 846.55 638.33 844.43 C 634.05 843.22 629.92 841.57 625.66 840.29 C 620.35 838.29 615.10 836.15 609.79 834.18 C 604.80 832.13 599.79 830.15 594.86 827.96 C 593.44 827.40 592.03 826.81 590.62 826.26 C 570.76 817.31 551.14 807.81 532.14 797.14 C 515.21 787.81 498.73 777.71 482.45 767.31 C 481.15 766.36 479.84 765.47 478.54 764.55 C 466.72 757.21 455.56 748.87 444.14 740.93 C 438.32 736.59 432.47 732.29 426.56 728.08 L 426.49 727.76 C 419.71 722.68 413.04 717.48 406.38 712.27 C 402.42 708.41 397.66 705.52 393.66 701.72 C 382.87 693.31 372.95 683.82 362.30 675.28 C 358.85 671.81 355.39 668.34 351.52 665.35 C 347.95 662.46 345.32 658.40 341.26 656.15 L 341.52 655.96 C 335.09 650.50 329.59 644.04 323.18 638.56 L 322.42 638.55 L 322.53 637.43 L 321.36 637.58 L 321.59 636.37 L 320.34 636.64 L 320.61 635.36 L 319.30 635.66 L 319.68 634.61 L 318.52 634.49 L 318.45 633.37 L 317.82 633.60 C 316.96 632.64 316.10 631.71 315.23 630.78 C 313.42 629.13 311.69 627.38 310.11 625.53 L 309.38 625.57 L 309.57 624.45 L 308.43 624.59 L 308.55 623.44 L 307.38 623.57 L 307.57 622.38 L 306.34 622.63 L 306.60 621.36 L 305.66 621.68 L 305.33 620.64 L 304.28 620.40 L 304.68 619.49 L 303.84 619.48 C 298.21 612.27 290.91 606.51 285.02 599.49 L 284.07 599.72 L 284.84 598.45 L 283.92 598.52 C 280.91 594.25 276.60 591.12 273.55 586.88 C 267.12 580.13 261.11 573.01 254.99 565.99 C 251.37 561.71 247.60 557.56 244.20 553.10 C 242.73 551.48 241.23 549.88 239.88 548.16 C 229.82 535.65 219.58 523.28 210.21 510.23 C 209.74 509.70 209.27 509.17 208.79 508.65 C 201.19 498.05 193.46 487.55 186.07 476.80 C 173.44 458.17 161.41 439.15 150.17 419.67 C 149.72 418.81 149.28 417.96 148.84 417.11 C 139.25 400.35 130.16 383.26 122.22 365.65 C 116.93 355.03 112.50 344.02 108.06 333.03 C 107.65 332.09 107.23 331.16 106.81 330.24 C 101.53 316.03 96.48 301.69 92.35 287.12 C 85.31 263.65 81.40 239.32 79.28 214.96 C 78.36 202.55 80.09 190.19 82.06 177.98 C 84.17 169.62 86.33 161.16 90.37 153.48 C 95.05 143.67 103.27 136.33 110.79 128.73 C 121.11 117.43 131.97 106.63 142.90 95.90 C 157.39 82.60 173.10 69.77 191.82 62.97 C 199.00 60.41 206.51 58.43 214.17 58.23 C 214.61 58.09 215.49 57.82 215.93 57.69 Z" />
</svg>
