<?xml version="1.0" standalone="no"?>
<!DOCTYPE svg PUBLIC "-//W3C//DTD SVG 20010904//EN"
 "http://www.w3.org/TR/2001/REC-SVG-20010904/DTD/svg10.dtd">
<svg version="1.0" xmlns="http://www.w3.org/2000/svg"
 width="640.000000pt" height="640.000000pt" viewBox="0 0 640.000000 640.000000"
 preserveAspectRatio="xMidYMid meet">
<metadata>
Created by potrace 1.14, written by Peter Selinger 2001-2017
</metadata>
<g transform="translate(0.000000,640.000000) scale(0.100000,-0.100000)"
fill="#000000" stroke="none">
<path d="M2935 6316 c-199 -133 -405 -266 -411 -266 -2 0 -14 -8 -25 -18 -10
-11 -32 -25 -47 -33 -15 -8 -36 -22 -46 -31 -11 -10 -23 -18 -27 -18 -6 0
-162 -100 -185 -119 -6 -4 -42 -28 -80 -52 -38 -24 -90 -58 -115 -76 -26 -18
-49 -33 -51 -33 -3 0 -49 -29 -102 -65 -53 -36 -100 -65 -105 -65 -5 0 -11 -4
-13 -8 -2 -6 -241 -165 -296 -197 -9 -6 -59 -38 -111 -73 -51 -34 -95 -62 -97
-62 -5 0 -60 -38 -80 -55 -7 -5 -38 -26 -69 -45 -81 -49 -427 -276 -442 -289
-7 -6 -15 -11 -18 -11 -3 0 -18 -9 -33 -19 -15 -10 -67 -45 -117 -77 -49 -32
-92 -60 -95 -63 -3 -3 -14 -11 -25 -17 -20 -11 -20 -23 -22 -1395 -2 -761 1
-1389 5 -1395 4 -6 59 -45 122 -86 63 -41 175 -114 248 -161 73 -48 136 -87
141 -87 5 0 11 -4 13 -8 4 -10 96 -72 107 -72 4 0 16 -9 26 -20 10 -11 22 -20
27 -20 6 0 20 -8 33 -17 12 -10 31 -24 41 -30 233 -153 496 -323 500 -323 3 0
10 -5 17 -11 11 -9 76 -52 367 -241 52 -34 174 -113 270 -176 96 -63 209 -136
250 -163 41 -27 80 -53 87 -59 7 -5 15 -10 18 -10 8 0 69 -44 73 -52 2 -5 8
-8 13 -8 5 0 63 -36 130 -80 66 -44 124 -80 129 -80 4 0 10 -3 12 -8 3 -7 101
-72 109 -72 2 0 4 622 4 1382 l0 1382 -140 94 c-77 51 -147 96 -155 99 -8 4
-17 9 -20 12 -5 6 -55 39 -213 142 -54 35 -93 65 -86 68 7 2 51 29 98 61 47
31 113 74 146 96 33 21 62 42 63 46 2 5 7 8 11 8 5 0 73 43 152 95 l144 94 0
1381 c0 930 -3 1380 -10 1380 -5 -1 -59 -34 -120 -74z"/>
<path d="M3335 4969 l0 -1382 25 -18 c29 -20 302 -199 473 -309 64 -41 117
-80 117 -86 0 -7 -8 -14 -17 -17 -20 -6 -75 -38 -83 -48 -3 -3 -43 -31 -90
-61 -198 -127 -269 -174 -345 -225 l-80 -53 0 -1379 c0 -759 3 -1383 8 -1387
4 -4 7 -3 7 3 0 6 14 16 30 23 17 7 30 16 30 21 0 5 5 9 10 9 9 0 176 106 190
120 3 3 34 23 70 45 36 21 70 43 75 47 27 23 377 248 384 248 5 0 11 3 13 8 2
4 35 27 73 52 39 25 75 48 80 53 29 23 287 187 295 187 4 0 10 4 12 8 2 4 39
31 83 60 44 28 87 56 95 62 47 32 154 100 157 100 3 0 33 20 67 45 35 25 67
45 70 45 4 0 12 5 19 10 27 24 208 140 217 140 6 0 10 4 10 9 0 5 14 14 30 21
17 7 30 15 30 19 0 4 25 20 55 36 30 17 55 33 55 37 0 3 21 18 46 33 26 15
126 79 223 143 97 63 196 128 221 143 25 16 55 36 68 45 l22 17 0 1381 c0 760
-4 1386 -8 1391 -4 6 -32 27 -62 47 -30 19 -118 76 -195 127 -77 50 -147 95
-155 101 -22 15 -538 351 -644 418 -48 31 -94 63 -101 70 -8 6 -16 12 -19 12
-3 0 -35 20 -72 45 -36 25 -69 45 -73 45 -3 0 -22 13 -41 30 -19 16 -39 29
-43 30 -9 0 -98 59 -107 70 -3 4 -12 9 -20 12 -16 6 -297 190 -317 207 -7 6
-15 11 -18 11 -3 0 -66 41 -140 90 -74 50 -139 90 -144 90 -5 0 -11 3 -13 8
-1 4 -100 70 -218 147 -118 76 -231 149 -250 162 -19 12 -40 27 -46 32 -11 9
-51 31 -56 31 -2 0 -3 -622 -3 -1381z"/>
</g>
</svg>
