<svg width="40" height="40" fill="none" xmlns="http://www.w3.org/2000/svg"><path d="M20 3.2a3.6 3.6 0 100 7.2 3.6 3.6 0 000-7.2zm-6 3.6a6 6 0 1112 0 6 6 0 01-12 0zm19.2-1.2a2.4 2.4 0 100 4.8 2.4 2.4 0 000-4.8zM28.4 8A4.8 4.8 0 1138 8a4.8 4.8 0 01-9.6 0zm-24 0a2.4 2.4 0 114.8 0 2.4 2.4 0 01-4.8 0zm2.4-4.8a4.8 4.8 0 100 9.6 4.8 4.8 0 000-9.6zm1.44 28.795A4.8 4.8 0 013.2 27.2v-9a.6.6 0 01.6-.6h4.234c.096-.88.408-1.7.876-2.4H3.8c-1.656 0-3 1.344-3 3v9a7.2 7.2 0 008.17 7.135 11.91 11.91 0 01-.73-2.34zm22.79 2.34A7.2 7.2 0 0039.2 27.2v-9c0-1.656-1.344-3-3-3h-5.11c.47.7.78 1.52.876 2.4H36.2a.6.6 0 01.6.6v9a4.799 4.799 0 01-5.04 4.795 11.913 11.913 0 01-.73 2.34zM13.4 15.2c-1.656 0-3 1.344-3 3v11.4a9.6 9.6 0 0019.2 0V18.2c0-1.656-1.344-3-3-3H13.4zm-.6 3a.6.6 0 01.6-.6h13.2a.6.6 0 01.6.6v11.4a7.2 7.2 0 01-14.4 0V18.2z" fill="#828282"/></svg>