<svg width="42" height="42" fill="none" xmlns="http://www.w3.org/2000/svg"><path d="M35.583 39.75V6.417a4.167 4.167 0 00-4.166-4.167H10.583a4.167 4.167 0 00-4.166 4.167V39.75m29.166 0h4.167m-4.167 0H25.167m-18.75 0H2.25m4.167 0h10.416M14.75 10.583h2.083m-2.083 8.334h2.083m8.334-8.334h2.083m-2.083 8.334h2.083M16.833 39.75V29.333a2.083 2.083 0 012.084-2.083h4.166a2.083 2.083 0 012.084 2.083V39.75m-8.334 0h8.334" stroke="#828282" stroke-width="3" stroke-linecap="round" stroke-linejoin="round"/></svg>