<svg version="1.1" id="Capa_1" xmlns="http://www.w3.org/2000/svg" x="0" y="0" viewBox="0 0 330 330" xml:space="preserve"><path d="M315 0H15C6.716 0 0 6.716 0 15v300c0 8.284 6.716 15 15 15h300c8.284 0 15-6.716 15-15V15c0-8.284-6.716-15-15-15zm-15 300H30V30h270v270z"/><path d="M90.001 109.999h150c8.284 0 15-6.716 15-15s-6.716-15-15-15h-150c-8.284 0-15 6.716-15 15s6.716 15 15 15zm0 70h150c8.284 0 15-6.716 15-15 0-8.284-6.716-15-15-15h-150c-8.284 0-15 6.716-15 15 0 8.284 6.716 15 15 15zm0 70h150c8.284 0 15-6.716 15-15 0-8.284-6.716-15-15-15h-150c-8.284 0-15 6.716-15 15 0 8.284 6.716 15 15 15z"/></svg>